name C:/MyDriveSym/Projects/mobilecap/Data\Session20210830_0002\mocap\ForceDataProcessed\walking3_forces.mot
datacolumns 19
datarows 29
range 0.68450000 0.69850000
endheader 
time	R_ground_force_vx	R_ground_force_vy	R_ground_force_vz	R_ground_force_px	R_ground_force_py	R_ground_force_pz	R_ground_torque_x	R_ground_torque_y	R_ground_torque_z	L_ground_force_vx	L_ground_force_vy	L_ground_force_vz	L_ground_force_px	L_ground_force_py	L_ground_force_pz	L_ground_torque_x	L_ground_torque_y	L_ground_torque_z	
          0.68450000	         85.14451700	        418.81487500	          8.83762700	          0.32848600	          0.00600000	         -0.19659500	          0.00000000	         -1.11015800	          0.00000000	        -55.94815600	        491.46699400	        -17.91234700	          0.86912000	          0.00600000	         -0.24434600	          0.00000000	          0.78093500	          0.00000000	
          0.68500000	         84.72660900	        415.69272100	          8.85883000	          0.32864700	          0.00600000	         -0.19658700	          0.00000000	         -1.10286500	          0.00000000	        -56.45889500	        494.35299000	        -17.75075600	          0.86930600	          0.00600000	         -0.24439300	          0.00000000	          0.78656500	          0.00000000	
          0.68550000	         84.30507500	        412.57137800	          8.87902100	          0.32881000	          0.00600000	         -0.19657900	          0.00000000	         -1.09557200	          0.00000000	        -56.96937200	        497.23387700	        -17.58670200	          0.86949300	          0.00600000	         -0.24444100	          0.00000000	          0.79219200	          0.00000000	
          0.68600000	         83.87997300	        409.45107500	          8.89819900	          0.32897200	          0.00600000	         -0.19657100	          0.00000000	         -1.08827900	          0.00000000	        -57.47953300	        500.10945100	        -17.42020500	          0.86967900	          0.00600000	         -0.24448800	          0.00000000	          0.79781600	          0.00000000	
          0.68650000	         83.45136100	        406.33204200	          8.91636000	          0.32913600	          0.00600000	         -0.19656300	          0.00000000	         -1.08098400	          0.00000000	        -57.98932800	        502.97951100	        -17.25128600	          0.86986500	          0.00600000	         -0.24453500	          0.00000000	          0.80343300	          0.00000000	
          0.68700000	         83.01929700	        403.21450700	          8.93350300	          0.32929900	          0.00600000	         -0.19655500	          0.00000000	         -1.07368900	          0.00000000	        -58.49870600	        505.84385600	        -17.07996700	          0.87005100	          0.00600000	         -0.24458200	          0.00000000	          0.80904300	          0.00000000	
          0.68750000	         82.58384100	        400.09870000	          8.94962800	          0.32946400	          0.00600000	         -0.19654600	          0.00000000	         -1.06639300	          0.00000000	        -59.00761300	        508.70228400	        -16.90627000	          0.87023600	          0.00600000	         -0.24462900	          0.00000000	          0.81464300	          0.00000000	
          0.68800000	         82.14505400	        396.98484800	          8.96473200	          0.32962900	          0.00600000	         -0.19653800	          0.00000000	         -1.05909700	          0.00000000	        -59.51600000	        511.55459400	        -16.73021900	          0.87042100	          0.00600000	         -0.24467500	          0.00000000	          0.82023200	          0.00000000	
          0.68850000	         81.70299500	        393.87317900	          8.97881600	          0.32979400	          0.00600000	         -0.19652900	          0.00000000	         -1.05180100	          0.00000000	        -60.02381300	        514.40058600	        -16.55183700	          0.87060600	          0.00600000	         -0.24472200	          0.00000000	          0.82580700	          0.00000000	
          0.68900000	         81.25772700	        390.76391700	          8.99187900	          0.32996000	          0.00600000	         -0.19652000	          0.00000000	         -1.04450600	          0.00000000	        -60.53100000	        517.24005900	        -16.37115000	          0.87079000	          0.00600000	         -0.24476800	          0.00000000	          0.83136700	          0.00000000	
          0.68950000	         80.80931200	        387.65729100	          9.00392000	          0.33012700	          0.00600000	         -0.19651200	          0.00000000	         -1.03721000	          0.00000000	        -61.03751000	        520.07281400	        -16.18818200	          0.87097400	          0.00600000	         -0.24481500	          0.00000000	          0.83691000	          0.00000000	
          0.69000000	         80.35781200	        384.55352300	          9.01494200	          0.33029400	          0.00600000	         -0.19650300	          0.00000000	         -1.02991500	          0.00000000	        -61.54329000	        522.89864900	        -16.00296100	          0.87115800	          0.00600000	         -0.24486100	          0.00000000	          0.84243400	          0.00000000	
          0.69050000	         79.90329200	        381.45284000	          9.02494300	          0.33046200	          0.00600000	         -0.19649400	          0.00000000	         -1.02262100	          0.00000000	        -62.04828800	        525.71736700	        -15.81551100	          0.87134200	          0.00600000	         -0.24490700	          0.00000000	          0.84793700	          0.00000000	
          0.69100000	         79.44581400	        378.35546300	          9.03392600	          0.33063100	          0.00600000	         -0.19648500	          0.00000000	         -1.01532800	          0.00000000	        -62.55245000	        528.52876700	        -15.62586200	          0.87152500	          0.00600000	         -0.24495300	          0.00000000	          0.85341800	          0.00000000	
          0.69150000	         78.98544400	        375.26161500	          9.04189200	          0.33080000	          0.00600000	         -0.19647600	          0.00000000	         -1.00803700	          0.00000000	        -63.05572400	        531.33265100	        -15.43404000	          0.87170800	          0.00600000	         -0.24499800	          0.00000000	          0.85887300	          0.00000000	
          0.69200000	         78.52224600	        372.17151900	          9.04884300	          0.33097000	          0.00600000	         -0.19646600	          0.00000000	         -1.00074700	          0.00000000	        -63.55805900	        534.12882100	        -15.24007500	          0.87189100	          0.00600000	         -0.24504400	          0.00000000	          0.86430200	          0.00000000	
          0.69250000	         78.05628600	        369.08539400	          9.05478100	          0.33114100	          0.00600000	         -0.19645700	          0.00000000	         -0.99345900	          0.00000000	        -64.05939900	        536.91708000	        -15.04399600	          0.87207300	          0.00600000	         -0.24508900	          0.00000000	          0.86970300	          0.00000000	
          0.69300000	         77.58763100	        366.00346000	          9.05970800	          0.33131200	          0.00600000	         -0.19644700	          0.00000000	         -0.98617400	          0.00000000	        -64.55969400	        539.69723000	        -14.84583300	          0.87225500	          0.00600000	         -0.24513500	          0.00000000	          0.87507200	          0.00000000	
          0.69350000	         77.11634600	        362.92593600	          9.06362800	          0.33148400	          0.00600000	         -0.19643800	          0.00000000	         -0.97889100	          0.00000000	        -65.05888900	        542.46907500	        -14.64561600	          0.87243700	          0.00600000	         -0.24518000	          0.00000000	          0.88041000	          0.00000000	
          0.69400000	         76.64249800	        359.85303800	          9.06654400	          0.33165600	          0.00600000	         -0.19642800	          0.00000000	         -0.97161200	          0.00000000	        -65.55693200	        545.23242000	        -14.44337700	          0.87261800	          0.00600000	         -0.24522500	          0.00000000	          0.88571200	          0.00000000	
          0.69450000	         76.16615600	        356.78498300	          9.06845900	          0.33183000	          0.00600000	         -0.19641800	          0.00000000	         -0.96433600	          0.00000000	        -66.05377000	        547.98706900	        -14.23914800	          0.87280000	          0.00600000	         -0.24527000	          0.00000000	          0.89097900	          0.00000000	
          0.69500000	         75.68738600	        353.72198600	          9.06937700	          0.33200400	          0.00600000	         -0.19640800	          0.00000000	         -0.95706400	          0.00000000	        -66.54935000	        550.73282800	        -14.03296100	          0.87298100	          0.00600000	         -0.24531400	          0.00000000	          0.89620700	          0.00000000	
          0.69550000	         75.20625600	        350.66426100	          9.06930300	          0.33217900	          0.00600000	         -0.19639800	          0.00000000	         -0.94979600	          0.00000000	        -67.04361800	        553.46950300	        -13.82484900	          0.87316100	          0.00600000	         -0.24535900	          0.00000000	          0.90139400	          0.00000000	
          0.69600000	         74.72283500	        347.61202000	          9.06824100	          0.33235400	          0.00600000	         -0.19638800	          0.00000000	         -0.94253300	          0.00000000	        -67.53652300	        556.19690100	        -13.61484600	          0.87334200	          0.00600000	         -0.24540300	          0.00000000	          0.90653900	          0.00000000	
          0.69650000	         74.23719200	        344.56547300	          9.06619600	          0.33253100	          0.00600000	         -0.19637800	          0.00000000	         -0.93527600	          0.00000000	        -68.02801000	        558.91482900	        -13.40298500	          0.87352200	          0.00600000	         -0.24544800	          0.00000000	          0.91164000	          0.00000000	
          0.69700000	         73.74939600	        341.52483000	          9.06317300	          0.33270800	          0.00600000	         -0.19636700	          0.00000000	         -0.92802400	          0.00000000	        -68.51802700	        561.62309500	        -13.18930200	          0.87370200	          0.00600000	         -0.24549200	          0.00000000	          0.91669400	          0.00000000	
          0.69750000	         73.25951500	        338.49030000	          9.05917700	          0.33288600	          0.00600000	         -0.19635700	          0.00000000	         -0.92077900	          0.00000000	        -69.00652100	        564.32150900	        -12.97383100	          0.87388100	          0.00600000	         -0.24553600	          0.00000000	          0.92170000	          0.00000000	
          0.69800000	         72.76762000	        335.46208900	          9.05421400	          0.33306500	          0.00600000	         -0.19634600	          0.00000000	         -0.91354000	          0.00000000	        -69.49343900	        567.00988000	        -12.75660900	          0.87406000	          0.00600000	         -0.24558000	          0.00000000	          0.92665600	          0.00000000	
          0.69850000	         72.27378000	        332.44040200	          9.04829000	          0.33324400	          0.00600000	         -0.19633500	          0.00000000	         -0.90630800	          0.00000000	        -69.97872900	        569.68801800	        -12.53767100	          0.87423900	          0.00600000	         -0.24562300	          0.00000000	          0.93156100	          0.00000000	
